# xmcd
#
# Track frame offsets: 
#        150
#        21215
#        32385
#        40497
#        56632
#        73059
#        88582
#        106222
#        117468
#        134584
#        151192
#        167447
#        175518
#        192218
#        201947
#        222183
#        247771
#        265396
#
# Disc length: 3689 seconds
#
# Revision: 6
# Processed by: cddbd v1.5.2PL0 Copyright (c) Steve Scherf et al.
# Submitted via: ExactAudioCopy v1.0b3
#
DISCID=f50e6712
DTITLE=Various Artist - Родом из Ирландии
DYEAR=2001
DGENRE=Celtic
TTITLE0=The Dartz - Родом из Ирландии
TTITLE1=Puck and Piper - Кувшин Пивца
TTITLE2=Slua Si - Tommy Peoples' - The man who shot the windmill
TTITLE3=Mervent - Ev Sistr
TTITLE4=Telenn Gwad - Farewell to Nancy
TTITLE5=Puck and Piper - Бал у Ланнигана
TTITLE6=Reelroad - Kesh - Swallow Tail
TTITLE7=Foggy Dew - Galway Races
TTITLE8=Art Ceilidh - Owner of Nothing
TTITLE9=Mervent - The Blind Hharper of Lochmaben
TTITLE10=The Dartz - Холодные Камни
TTITLE11=Slua Si - Come and Join the British Army 
TTITLE12=Puck and Piper - Каменистая Дорога
TTITLE13=Foggy Dew - Rare Old Mountain Вew
TTITLE14=Reelroad - Венгерская
TTITLE15=Telenn Gwad - Little Summer Girl
TTITLE16=The Dartz - Кунла
TTITLE17=Puck and Piper - Всё Отдам Я за Грог
EXTD=YEAR: 2001
EXTT0=
EXTT1=
EXTT2=
EXTT3=
EXTT4=
EXTT5=
EXTT6=
EXTT7=
EXTT8=
EXTT9=
EXTT10=
EXTT11=
EXTT12=
EXTT13=
EXTT14=
EXTT15=
EXTT16=
EXTT17=
PLAYORDER=
